<svg version="1.1" id="Layer_1" xmlns="http://www.w3.org/2000/svg" xmlns:xlink="http://www.w3.org/1999/xlink" x="0px" y="0px"
	 width="100%" viewBox="0 0 1024 1024" enable-background="new 0 0 1024 1024" xml:space="preserve">
<path fill="#000000" opacity="1.000000" stroke="none" 
	d="
M117.705666,512.171814 
	C120.273224,480.367249 123.935318,449.259125 132.424789,418.826782 
	C140.713425,389.114258 152.765991,361.093567 167.925964,334.320251 
	C189.127457,296.877289 216.126923,263.952454 247.809265,235.104187 
	C291.501160,195.320679 342.499359,168.122101 399.079193,151.431183 
	C422.549469,144.507523 446.534210,139.092407 470.866333,137.164307 
	C492.804688,135.425888 514.863281,134.398148 537.070679,136.265839 
	C560.160950,138.207794 582.911804,141.378632 605.436584,146.567902 
	C640.600647,154.669067 673.535522,168.214127 704.684692,186.428146 
	C727.902222,200.004181 750.017944,215.066803 770.090332,232.953918 
	C787.516174,248.482666 803.459473,265.469177 818.072876,283.714691 
	C847.465210,320.412354 868.564636,361.530975 883.383667,405.964996 
	C892.140198,432.221039 897.298462,459.296478 900.359070,486.773712 
	C902.146912,502.823761 903.040649,518.972229 902.172241,535.072754 
	C900.803711,560.446838 897.458984,585.615662 891.915344,610.454529 
	C881.298035,658.027161 862.033081,701.861633 833.880310,741.580322 
	C817.984314,764.006836 799.796753,784.534973 779.509460,803.277466 
	C742.443970,837.520813 700.118225,863.154846 653.437866,881.715393 
	C628.788635,891.516235 603.147705,897.983215 576.968262,902.547180 
	C548.474854,907.514465 519.803284,909.139099 491.013153,908.026733 
	C474.262878,907.379578 457.617798,904.958618 441.068207,901.950806 
	C393.205383,893.252136 348.613464,875.845825 306.457214,851.909180 
	C281.444519,837.706726 258.190399,820.883240 237.625839,800.847351 
	C201.933136,766.072144 171.869919,726.983398 151.559814,681.092468 
	C136.516846,647.102844 126.535614,611.610840 121.619125,574.739502 
	C118.872192,554.138855 117.423309,533.447876 117.705666,512.171814 
M791.830627,652.420105 
	C812.935608,607.323364 823.322144,560.221680 820.247803,510.155579 
	C818.774597,486.164368 813.937134,463.039978 806.838867,440.300781 
	C794.020874,399.238403 773.678772,362.271576 745.339905,329.800110 
	C715.140869,295.197449 679.193176,268.241577 637.984985,247.986618 
	C604.963440,231.755630 570.016479,222.690414 533.621399,219.584396 
	C508.529053,217.442963 483.282684,218.678726 458.515839,223.586761 
	C405.329163,234.126724 357.194916,256.055084 314.767639,289.929535 
	C295.079102,305.649139 277.671631,323.683502 261.856964,343.410156 
	C238.077408,373.072021 218.946671,405.252258 207.069656,441.385345 
	C198.114548,468.629242 192.569855,496.625336 191.940491,525.474548 
	C191.437820,548.516357 193.923843,571.258179 197.253159,594.007141 
	C203.312180,635.407776 218.596222,673.193176 240.831177,708.375000 
	C245.921097,716.428589 252.161743,723.585571 258.424744,730.724915 
	C260.690613,733.307861 261.179016,736.052795 258.366699,738.640625 
	C255.746384,741.051941 252.992706,741.014221 250.294815,738.783020 
	C249.274109,737.938965 248.382889,736.929382 247.484055,735.948181 
	C240.038879,727.820190 233.506958,718.965637 227.214401,709.950378 
	C196.478012,665.914917 179.997650,616.339539 171.243927,563.913818 
	C168.982925,550.372803 168.798080,536.536316 168.708344,522.783142 
	C168.606186,507.123016 170.202057,491.587128 172.642914,476.133484 
	C178.313919,440.228851 190.436829,406.516602 207.869522,374.742798 
	C223.999084,345.344177 244.755310,319.403320 268.238831,295.520172 
	C291.802826,271.555176 318.575836,251.962250 348.089569,236.108536 
	C393.808411,211.550034 442.975250,197.876083 494.110413,190.555420 
	C523.450562,186.354950 552.931885,184.221558 582.562744,183.939697 
	C602.841309,183.746826 623.016663,185.619949 643.253662,186.784073 
	C640.908997,185.873123 638.551025,185.089050 636.144592,184.505432 
	C613.246826,178.952332 589.821960,177.706177 566.449341,176.101608 
	C535.966248,174.008911 505.428406,174.697174 475.249237,178.775009 
	C437.740021,183.843292 401.052246,192.887711 366.069641,207.962250 
	C319.049957,228.223709 277.737061,256.590302 243.649857,294.882538 
	C227.397797,313.139496 212.292389,332.363556 199.607590,353.436584 
	C181.807327,383.007843 167.848022,414.167572 158.608688,447.423737 
	C152.003601,471.198181 148.148865,495.495453 146.608673,520.051392 
	C145.224640,542.117981 146.879654,564.192627 149.490372,586.149841 
	C152.984146,615.533875 160.077408,643.962891 171.324600,671.418823 
	C194.281204,727.459167 229.542877,773.952026 278.137817,810.141479 
	C318.706299,840.353455 364.469818,856.799255 414.822052,860.682251 
	C434.249054,862.180420 453.661743,862.550171 473.115479,860.764954 
	C497.176056,858.557129 520.926697,854.591370 544.138306,847.971313 
	C608.846497,829.516296 667.057312,799.054321 717.027405,753.526245 
	C748.433716,724.911621 773.571350,691.680298 791.830627,652.420105 
z"/>
<path fill="#000000" opacity="1.000000" stroke="none" 
	d="
M467.085815,293.830627 
	C494.018402,290.487946 520.469116,290.324921 547.067993,293.328064 
	C572.735535,296.226013 597.622131,301.869690 621.276855,312.108551 
	C647.325073,323.383514 671.532043,337.548981 688.762085,361.079437 
	C698.534851,374.425690 704.268860,389.101776 704.234375,406.018127 
	C704.076111,483.672028 704.112488,561.326538 704.202393,638.980652 
	C704.229614,662.466003 694.558350,681.398560 677.813232,697.170227 
	C651.822144,721.650146 620.132019,734.879639 586.068359,743.264282 
	C566.817871,748.002686 547.335876,750.557373 527.437439,751.709717 
	C473.352386,754.841919 422.056305,745.585449 374.105774,720.071655 
	C356.780090,710.852844 341.739288,698.657776 330.217346,682.347046 
	C320.422729,668.481567 316.006714,653.198364 316.114014,636.430664 
	C316.212097,621.104736 316.559082,605.779236 316.535614,590.453979 
	C316.495300,564.130249 315.769073,537.798584 316.217773,511.485413 
	C316.763306,479.492706 315.643158,447.516602 316.063629,415.531006 
	C316.268799,399.922729 317.356903,384.689178 325.564941,370.697357 
	C335.034637,354.554779 347.710541,341.586731 363.192291,331.385681 
	C382.672424,318.550018 404.079498,309.917419 426.346893,303.152954 
	C439.592590,299.129120 453.071899,296.348633 467.085815,293.830627 
M584.405090,334.132965 
	C579.573730,332.879395 574.787598,331.404022 569.903503,330.409515 
	C544.686890,325.274658 519.271240,323.453247 493.517242,324.885468 
	C464.148682,326.518707 435.786407,332.063629 409.012115,344.451599 
	C394.117981,351.342773 380.163849,359.741302 369.707184,372.860046 
	C356.178314,389.833221 356.620850,405.003143 369.156158,421.997803 
	C374.927185,429.821808 382.577332,435.792603 390.984894,440.746643 
	C418.910522,457.201630 449.603790,465.365509 481.406281,468.229004 
	C501.851532,470.069916 522.630798,469.701691 543.235962,467.742798 
	C567.280334,465.456848 590.380981,459.487885 612.475830,449.841431 
	C627.047546,443.479492 640.803467,435.786407 651.235901,423.229492 
	C664.873169,406.815125 665.185730,389.961121 651.973022,373.345795 
	C648.632996,369.145691 644.777771,365.501404 640.659546,362.092621 
	C624.305481,348.555817 605.213074,340.515717 584.405090,334.132965 
M591.399841,479.117950 
	C530.211243,494.819550 469.567078,493.048645 410.038116,472.754944 
	C408.317169,474.877441 408.517487,476.577423 408.550568,478.231720 
	C408.677124,484.558167 408.968445,490.885681 408.906281,497.209900 
	C408.870239,500.879059 410.159271,502.768860 413.759644,504.182190 
	C443.431000,515.830017 474.440735,520.000183 506.012024,520.976746 
	C524.309570,521.542786 542.455994,519.723511 560.543274,516.927124 
	C589.654236,512.426514 617.354736,504.145813 641.958252,487.372345 
	C652.187195,480.398773 662.075745,472.982635 666.972717,460.918121 
	C670.061462,453.308533 672.040894,445.579437 669.504639,436.466339 
	C664.945984,441.104950 661.044922,445.347076 656.496704,448.916046 
	C637.373962,463.921478 615.161133,472.209625 591.399841,479.117950 
M631.204163,690.654907 
	C635.041199,688.313110 639.047913,686.206848 642.684143,683.586365 
	C654.713684,674.917847 665.793152,665.404907 669.876770,650.222351 
	C670.960571,646.192871 671.101868,642.225586 669.623657,637.494690 
	C660.062012,645.878052 650.263062,652.701477 639.582947,658.180054 
	C600.924561,678.010559 559.189331,684.378235 516.434937,686.019531 
	C500.961517,686.613647 485.520081,685.507385 470.202087,683.237732 
	C454.415588,680.898804 438.603210,678.704956 423.276245,673.898865 
	C418.634735,672.443481 414.039032,670.395386 408.915710,670.047791 
	C408.915710,678.022278 409.197235,685.649597 408.814758,693.243530 
	C408.568115,698.140442 410.596771,700.299133 414.996063,701.916382 
	C439.716309,711.003662 465.341400,716.095764 491.482880,717.427368 
	C515.550354,718.653259 539.652161,717.862854 563.555176,713.325195 
	C586.955811,708.882874 609.334717,701.786804 631.204163,690.654907 
M524.620850,586.580933 
	C532.205933,585.882446 539.832886,585.484131 547.368530,584.431946 
	C575.309387,580.530273 602.707397,574.471069 628.030579,561.483643 
	C642.167358,554.233398 655.624084,545.805481 664.494568,532.023560 
	C669.544495,524.177673 671.725342,515.496826 670.242859,505.991943 
	C667.774719,506.330658 666.995911,508.215759 665.641968,509.350189 
	C664.239197,510.525482 662.945984,511.834198 661.519409,512.977966 
	C644.612976,526.532776 625.083923,534.970093 604.628235,541.245911 
	C572.618042,551.066650 539.851685,555.065002 506.283966,554.577087 
	C478.301392,554.170288 450.969421,550.768738 424.066589,543.262817 
	C419.070465,541.868896 414.270599,539.522705 408.755127,539.170349 
	C407.721741,546.944946 409.464844,554.237061 408.917480,561.507935 
	C408.577698,566.021423 410.203308,568.439148 414.564514,570.025024 
	C442.436523,580.160889 471.215668,585.414246 500.787628,586.576416 
	C508.432709,586.876892 516.081238,585.428528 524.620850,586.580933 
M662.410461,577.976135 
	C659.010071,580.375122 655.731079,582.972107 652.190552,585.142578 
	C614.739746,608.100769 573.207153,617.217407 530.086975,620.061523 
	C514.540344,621.086975 498.849213,620.877441 483.213531,619.448242 
	C467.127686,617.977844 451.201599,615.738037 435.551361,611.788147 
	C426.636383,609.538147 417.844452,606.800354 408.939606,604.265808 
	C408.939606,612.043823 409.219971,619.376892 408.843384,626.676147 
	C408.581909,631.744019 410.716003,634.127197 415.275024,635.798218 
	C439.023834,644.502747 463.562469,650.167419 488.702972,651.385315 
	C521.328918,652.965759 553.955383,651.690735 585.755371,642.807129 
	C611.145874,635.714233 635.283691,626.001648 655.416687,608.273132 
	C660.080200,604.166504 664.167419,599.507629 666.718323,593.815247 
	C669.675964,587.215454 672.315063,580.437866 669.125793,572.317688 
	C666.719482,574.363708 664.848755,575.954346 662.410461,577.976135 
M358.173126,467.331909 
	C361.657990,472.041168 365.225555,476.661346 371.578613,480.260773 
	C371.578613,471.702545 371.607910,464.301453 371.532623,456.901428 
	C371.525208,456.171143 371.069702,455.193542 370.497101,454.759277 
	C363.690369,449.596649 357.431854,443.857086 351.780609,436.358246 
	C350.604858,447.829559 351.278687,457.875000 358.173126,467.331909 
M351.348358,645.522461 
	C351.371460,657.469971 362.195312,674.447632 371.646057,676.811462 
	C371.646057,669.747437 371.675934,662.780151 371.610779,655.813721 
	C371.601959,654.873413 371.421875,653.557861 370.802887,653.058411 
	C364.584167,648.040771 358.257141,643.157410 351.350250,637.759277 
	C351.350250,640.673340 351.350250,642.659668 351.348358,645.522461 
M352.677032,588.654846 
	C356.677673,597.789307 361.363586,606.361816 371.602142,612.031067 
	C371.602142,603.642090 371.630341,596.347473 371.559387,589.053833 
	C371.552124,588.307800 371.159027,587.281921 370.592651,586.868469 
	C364.234009,582.226440 357.939697,577.502014 351.604401,571.515808 
	C351.236389,577.739685 350.900848,582.852600 352.677032,588.654846 
M365.322876,542.152222 
	C367.134521,543.463806 368.558258,545.397644 371.576172,546.124329 
	C371.576172,538.442200 371.581970,531.175781 371.569763,523.909363 
	C371.567963,522.839783 371.046204,521.971191 370.206390,521.359863 
	C363.834137,516.721008 357.404327,512.157104 351.778534,505.810516 
	C349.702698,520.802673 354.840973,532.158752 365.322876,542.152222 
z"/>
<path fill="#000000" opacity="1.000000" stroke="none" 
	d="
M236.753662,529.854248 
	C232.433090,515.632935 238.446991,503.078979 251.434662,498.528534 
	C263.831635,494.185059 276.556671,500.000732 281.680756,512.351685 
	C286.385956,523.692932 281.480011,536.987915 270.558746,542.492188 
	C259.065948,548.284485 245.564499,544.744141 238.997803,534.185181 
	C238.210571,532.919312 237.597137,531.545349 236.753662,529.854248 
z"/>
<path fill="#000000" opacity="1.000000" stroke="none" 
	d="
M781.281006,524.614807 
	C777.954590,537.879333 770.103577,544.628174 757.901245,545.135498 
	C747.767029,545.556824 737.551941,538.149231 734.110535,527.883423 
	C730.623657,517.482117 736.960938,503.761444 747.377441,499.159363 
	C758.052490,494.443115 771.379272,498.518219 777.230713,508.073761 
	C780.292786,513.074097 781.949097,518.299561 781.281006,524.614807 
z"/>
</svg>